# xmcd CD database file
#
# Track frame offsets:
#	150
#	15166
#	37527
#	57284
#	77683
#	101188
#	122801
#	142739
#	164972
#	178703
#	203367
#	220182
#
# Disc length: 3199 seconds
#
# Revision: 8
# Processed by: cddbd v1.5.1PL0 Copyright (c) Steve Scherf et al.
# Submitted via: CDex 1.60beta1
#
DISCID=950c7d0c
DTITLE=Little Wing - Sequence ANGEL TYPE BGM Arrenged Version.
DYEAR=2005
DGENRE=Game
TTITLE0=彼方
TTITLE1=彩菜 - Monologe
TTITLE2=夏日
TTITLE3=水色少女
TTITLE4=雪解け水
TTITLE5=オレンジ・シンドローム
TTITLE6=右から3番目の貝殻
TTITLE7=プラスティック
TTITLE8=観用風景
TTITLE9=センチメンタル
TTITLE10=彩菜 - Catharsis
TTITLE11=彩菜 - LOVES
EXTD=YEAR: 2005
EXTT0=
EXTT1=
EXTT2=
EXTT3=
EXTT4=
EXTT5=
EXTT6=
EXTT7=
EXTT8=
EXTT9=
EXTT10=
EXTT11=
PLAYORDER=
